<svg width="21" height="20" viewBox="0 0 21 20" fill="none" xmlns="http://www.w3.org/2000/svg">
<path d="M10.4984 10C10.4985 10.1023 10.4755 10.2033 10.4313 10.2955C10.387 10.3877 10.3226 10.4687 10.2427 10.5327L6.83363 13.2599C6.76368 13.3159 6.68339 13.3575 6.59735 13.3825C6.5113 13.4074 6.4212 13.4151 6.33216 13.4053C6.24313 13.3954 6.15691 13.368 6.07844 13.3248C5.99997 13.2816 5.93078 13.2234 5.87482 13.1534C5.81886 13.0835 5.77723 13.0032 5.75229 12.9171C5.72736 12.8311 5.71962 12.741 5.72951 12.6519C5.73941 12.5629 5.76674 12.4767 5.80995 12.3982C5.85316 12.3198 5.91141 12.2506 5.98136 12.1946L8.72482 10L5.98136 7.8054C5.91141 7.74944 5.85316 7.68025 5.80995 7.60178C5.76674 7.5233 5.73941 7.43709 5.72951 7.34806C5.71962 7.25902 5.72736 7.16891 5.75229 7.08287C5.77723 6.99683 5.81886 6.91654 5.87482 6.84659C5.93078 6.77664 5.99997 6.7184 6.07844 6.67518C6.15691 6.63197 6.24313 6.60464 6.33216 6.59475C6.4212 6.58486 6.5113 6.5926 6.59735 6.61753C6.68339 6.64246 6.76368 6.6841 6.83363 6.74006L10.2427 9.46733C10.3226 9.53125 10.387 9.61232 10.4313 9.70453C10.4755 9.79674 10.4985 9.89772 10.4984 10ZM14.5893 12.0455H11.1802C10.9994 12.0455 10.826 12.1173 10.6981 12.2452C10.5702 12.373 10.4984 12.5464 10.4984 12.7273C10.4984 12.9081 10.5702 13.0815 10.6981 13.2094C10.826 13.3373 10.9994 13.4091 11.1802 13.4091H14.5893C14.7701 13.4091 14.9436 13.3373 15.0714 13.2094C15.1993 13.0815 15.2711 12.9081 15.2711 12.7273C15.2711 12.5464 15.1993 12.373 15.0714 12.2452C14.9436 12.1173 14.7701 12.0455 14.5893 12.0455ZM19.362 3.86364V16.1364C19.362 16.498 19.2184 16.8449 18.9626 17.1006C18.7069 17.3563 18.3601 17.5 17.9984 17.5H2.9984C2.63674 17.5 2.2899 17.3563 2.03417 17.1006C1.77843 16.8449 1.63477 16.498 1.63477 16.1364V3.86364C1.63477 3.50198 1.77843 3.15513 2.03417 2.8994C2.2899 2.64367 2.63674 2.5 2.9984 2.5H17.9984C18.3601 2.5 18.7069 2.64367 18.9626 2.8994C19.2184 3.15513 19.362 3.50198 19.362 3.86364ZM17.9984 16.1364V3.86364H2.9984V16.1364H17.9984Z" fill="white"/>
</svg>
