<svg width="20" height="20" viewBox="0 0 20 20" fill="none" xmlns="http://www.w3.org/2000/svg">
<path d="M15.0769 5H4.92308C4.67826 5 4.44347 5.09725 4.27036 5.27036C4.09725 5.44347 4 5.67826 4 5.92308V14.2308C4 14.4756 4.09725 14.7104 4.27036 14.8835C4.44347 15.0566 4.67826 15.1538 4.92308 15.1538H15.0769C15.3217 15.1538 15.5565 15.0566 15.7296 14.8835C15.9027 14.7104 16 14.4756 16 14.2308V5.92308C16 5.67826 15.9027 5.44347 15.7296 5.27036C15.5565 5.09725 15.3217 5 15.0769 5ZM15.0769 5.92308V7.76923H4.92308V5.92308H15.0769ZM15.0769 14.2308H4.92308V8.69231H15.0769V14.2308Z" fill="white"/>
</svg>
